HIERARCHY
ROOT Hips
{
	OFFSET 0.00000 0.00000 0.00000
	CHANNELS 6 Xposition Yposition Zposition Zrotation Yrotation Xrotation 
	JOINT LHipJoint
	{
		OFFSET 0 0 0
		CHANNELS 3 Zrotation Yrotation Xrotation
		JOINT LeftHip
		{
			OFFSET 2.36090 -1.39315 1.24752
			CHANNELS 3 Zrotation Yrotation Xrotation
			JOINT LeftKnee
			{
				OFFSET 2.06810 -5.68207 0.00000
				CHANNELS 3 Zrotation Yrotation Xrotation
				JOINT LeftAnkle
				{
					OFFSET 2.46631 -6.77613 0.00000
					CHANNELS 3 Zrotation Yrotation Xrotation
					JOINT LeftToe
					{
						OFFSET 0.26031 -0.71520 1.99545
						CHANNELS 3 Zrotation Yrotation Xrotation
						End Site
						{
							OFFSET 0.00000 -0.00000 1.05957
						}
					}
				}
			}
		}
	}
	JOINT RHipJoint
	{
		OFFSET 0 0 0
		CHANNELS 3 Zrotation Yrotation Xrotation
		JOINT RightHip
		{
			OFFSET -2.25243 -1.39315 1.24752
			CHANNELS 3 Zrotation Yrotation Xrotation
			JOINT RightKnee
			{
				OFFSET -2.17343 -5.97145 0.00000
				CHANNELS 3 Zrotation Yrotation Xrotation
				JOINT RightAnkle
				{
					OFFSET -2.52372 -6.93386 0.00000
					CHANNELS 3 Zrotation Yrotation Xrotation
					JOINT RightToe
					{
						OFFSET -0.22538 -0.61923 2.11447
						CHANNELS 3 Zrotation Yrotation Xrotation
						End Site
						{
							OFFSET -0.00000 -0.00000 1.10506
						}
					}
				}
			}
		}
	}
	JOINT lowerback
	{
		OFFSET 0 0 0
		CHANNELS 3 Zrotation Yrotation Xrotation
		JOINT Chest
		{
			OFFSET 0.01594 2.13103 0.08007
			CHANNELS 3 Zrotation Yrotation Xrotation
			JOINT Chest2
			{
				OFFSET 0.01393 2.09723 0.18338
				CHANNELS 3 Zrotation Yrotation Xrotation
				JOINT lowerneck
				{
					OFFSET 0 0 0
					CHANNELS 3 Zrotation Yrotation Xrotation
					JOINT Neck
					{
						OFFSET 0.05351 1.38915 0.32494
						CHANNELS 3 Zrotation Yrotation Xrotation
						JOINT Head
						{
							OFFSET 0.00711 1.45992 -0.21666
							CHANNELS 3 Zrotation Yrotation Xrotation
							End Site
							{
								OFFSET -0.00433 1.47702 -0.11056
							}
						}
					}
				}
				JOINT LeftCollar
				{
					OFFSET 0 0 0
					CHANNELS 3 Zrotation Yrotation Xrotation
					JOINT LeftShoulder
					{
						OFFSET 2.87198 0.92249 0.11132
CHANNELS 3 Zrotation Xrotation Yrotation
						JOINT LeftElbow
						{
OFFSET 0 -5.527310 0.000000
CHANNELS 3 Zrotation Xrotation Yrotation
							JOINT LeftWrist
							{
OFFSET 0 -3.110590 0.000000
CHANNELS 3 Zrotation Xrotation Yrotation
								JOINT lhand
								{
									OFFSET 0 0 0
CHANNELS 3 Zrotation Xrotation Yrotation
									JOINT LFingers
									{
OFFSET 0 -0.419630 0.000000
CHANNELS 3 Zrotation Xrotation Yrotation
										End Site
										{
OFFSET 0 -0.338310 0.000000
										}
									}
								}
								JOINT LThumb
								{
OFFSET 0 0.000000 0.000000
CHANNELS 3 Zrotation Xrotation Yrotation
									End Site
									{
OFFSET 0 -0.343480 0.343480
									}
								}
							}
						}
					}
				}
				JOINT RightCollar
				{
					OFFSET 0 0 0
					CHANNELS 3 Zrotation Yrotation Xrotation
					JOINT RightShoulder
					{
						OFFSET -2.94710 0.68072 0.32187
CHANNELS 3 Zrotation Xrotation Yrotation
						JOINT RightElbow
						{
OFFSET 0 -5.253960 -0.000000
CHANNELS 3 Zrotation Xrotation Yrotation
							JOINT RightWrist
							{
OFFSET 0 -3.105670 0.000000
CHANNELS 3 Zrotation Xrotation Yrotation
								JOINT rhand
								{
									OFFSET 0 0 0
CHANNELS 3 Zrotation Xrotation Yrotation
									JOINT RFingers
									{
OFFSET 0 -0.498680 0.000000
CHANNELS 3 Zrotation Xrotation Yrotation
										End Site
										{
OFFSET 0 -0.402040 0.000000
										}
									}
								}
								JOINT RThumb
								{
OFFSET 0 0.000000 0.000000
CHANNELS 3 Zrotation Xrotation Yrotation
									End Site
									{
OFFSET 0 -0.408180 0.408180
									}
								}
							}
						}
					}
				}
			}
		}
	}
}
MOTION
Frames: 11
Frame Time: 0.008333333333333333
21.083050 15.631060 -17.926590 -181.992523 166.452608 -163.676593 0.000000 0.000000 0.000000 -5.675120 -27.869082 -46.615358 1.748210 8.317669 23.684836 0.060655 -3.190237 -4.601496 2.074051 -9.018606 -25.853612 0.000000 0.000000 0.000000 30.760919 24.194097 -9.490998 -2.554662 -9.936606 28.771650 -1.194769 6.181107 -19.538144 -0.000979 0.193528 -0.531757 9.641100 3.511828 -11.250826 3.188854 3.526339 -3.772829 -1.576248 1.762720 2.690648 -1.679005 -2.751587 -17.773691 -1.984160 -2.739256 28.012517 -0.879673 -1.627077 12.185650 0.000000 0.000000 0.000000 6.677907 12.924745 -29.496849 19.491449 -30.024550 5.274688 16.343678 -47.107137 8.934822 0.000000 0.000000 0.000000 -7.125000 0.000000 0.000000 -7.592011 20.711440 -4.454931 0.000000 0.000000 0.000000 -8.114807 -2.198708 34.179556 -12.826928 -21.033188 -2.390796 -16.980757 0.945342 13.163699 0.000000 0.000000 0.000000 7.125000 0.000000 0.000000 9.453527 43.519223 0.348767
21.182418 15.617752 -17.666162 -182.044883 167.493314 -163.257720 0.000000 0.000000 0.000000 -5.477874 -28.043089 -46.688754 1.327899 7.295620 20.595026 0.052791 -4.133115 -4.675633 2.147279 -9.166233 -26.316732 0.000000 0.000000 0.000000 30.763152 24.332690 -8.331674 -2.444980 -9.737142 28.129660 -1.179236 6.767608 -19.396667 -0.003224 0.365128 -1.003202 9.365814 3.323419 -11.174162 3.075588 3.337166 -3.992370 -1.584243 1.652825 2.391529 -1.863918 -2.478935 -17.382290 -1.603227 -2.421600 27.854977 -0.647595 -1.456546 12.053418 0.000000 0.000000 0.000000 7.181948 13.125922 -29.716238 19.967580 -30.603234 5.514887 16.820495 -47.449348 9.313487 0.000000 0.000000 0.000000 -7.125000 0.000000 0.000000 -7.244353 20.294536 -4.316197 0.000000 0.000000 0.000000 -7.786955 -1.882867 34.942879 -12.935038 -21.191913 -2.429712 -16.931709 0.785834 13.128473 0.000000 0.000000 0.000000 7.125000 0.000000 0.000000 9.489441 43.477852 0.359932
21.280102 15.595190 -17.394077 -182.143364 168.494437 -162.892564 0.000000 0.000000 0.000000 -5.628462 -27.973239 -46.870226 1.103089 6.673073 18.750520 0.061643 -4.676383 -5.137032 2.198823 -9.268518 -26.638862 0.000000 0.000000 0.000000 30.859482 24.416806 -7.081511 -2.339486 -9.539994 27.499734 -1.139178 7.365900 -19.067544 -0.001566 0.254835 -0.700115 8.987723 3.163692 -11.375106 2.998143 3.149769 -4.087326 -1.478023 1.557114 2.370874 -2.065101 -2.240839 -16.999331 -1.190722 -2.159749 27.599670 -0.411023 -1.308284 11.883612 0.000000 0.000000 0.000000 7.643291 12.859921 -29.933252 19.948632 -30.580384 5.505218 16.479682 -47.458025 9.739200 0.000000 0.000000 0.000000 -7.125000 0.000000 0.000000 -7.482026 19.874839 -4.531168 0.000000 0.000000 0.000000 -7.560799 -1.574653 35.622526 -13.093976 -21.424784 -2.487535 -16.759234 0.388622 13.130644 0.000000 0.000000 0.000000 7.125000 0.000000 0.000000 9.644408 43.461426 0.369887
21.376687 15.564220 -17.109138 -182.292998 169.424374 -162.519346 0.000000 0.000000 0.000000 -6.082693 -27.687211 -47.048383 1.022420 6.432550 18.044622 0.085905 -4.596184 -5.716106 2.163035 -9.197780 -26.415928 0.000000 0.000000 0.000000 31.021330 24.443768 -5.877681 -2.255976 -9.380026 26.991581 -1.092937 7.931596 -18.701857 -0.001711 0.263551 -0.724131 8.554188 3.024855 -11.871138 2.935420 2.952577 -4.059445 -1.309532 1.468559 2.638565 -1.993109 -1.969572 -17.075022 -0.956560 -1.867432 27.465291 -0.291865 -1.141540 11.846233 0.000000 0.000000 0.000000 8.123966 12.235305 -30.306223 19.676726 -30.250841 5.367558 16.767155 -47.131685 8.840399 0.000000 0.000000 0.000000 -7.125000 0.000000 0.000000 -7.289653 20.786640 -4.262759 0.000000 0.000000 0.000000 -7.392050 -1.292137 36.128906 -13.304315 -21.731451 -2.564870 -16.416353 -0.075934 13.174459 0.000000 0.000000 0.000000 7.125000 0.000000 0.000000 9.961286 43.469128 0.380349
21.472656 15.525489 -16.813930 -182.569449 170.217277 -162.061820 0.000000 0.000000 0.000000 -6.480554 -27.428133 -47.199446 1.053758 6.527003 18.321536 0.110123 -4.126721 -6.153525 2.114676 -9.100882 -26.111593 0.000000 0.000000 0.000000 31.284149 24.477419 -4.838536 -2.196375 -9.263721 26.623761 -1.052881 8.412684 -18.396447 -0.003015 0.356775 -0.980318 8.211428 2.844338 -12.421134 2.883019 2.694337 -4.106209 -1.191793 1.345810 2.856474 -1.785910 -1.643836 -17.566128 -0.745350 -1.520785 27.562602 -0.201821 -0.940163 11.980957 0.000000 0.000000 0.000000 8.594443 11.521757 -30.574079 19.194595 -29.659473 5.126895 17.999706 -46.397995 6.688496 0.000000 0.000000 0.000000 -7.125000 0.000000 0.000000 -6.435743 22.962668 -3.437531 0.000000 0.000000 0.000000 -7.256091 -0.881589 36.702453 -13.536697 -22.068513 -2.651558 -16.047648 -0.546764 13.232996 0.000000 0.000000 0.000000 7.125000 0.000000 0.000000 10.304634 43.488897 0.388673
21.566658 15.487496 -16.504356 -182.943028 171.006596 -161.555693 0.000000 0.000000 0.000000 -6.662047 -27.271152 -47.367175 1.190346 6.922801 19.487065 0.093793 -3.911991 -5.702986 1.925923 -8.709333 -24.890541 0.000000 0.000000 0.000000 31.618805 24.495426 -3.751363 -2.110737 -9.092878 26.086325 -0.985458 8.933078 -17.871444 -0.000730 0.164778 -0.452679 7.829272 2.679115 -13.052881 2.839973 2.468264 -4.312082 -1.040863 1.232151 2.952589 -1.569387 -1.309730 -17.910951 -0.430734 -1.201699 27.760476 -0.075774 -0.736026 12.126655 0.000000 0.000000 0.000000 9.044337 10.988144 -30.750449 18.547213 -28.851992 4.810488 18.391203 -45.799896 6.035668 0.000000 0.000000 0.000000 -7.125000 0.000000 0.000000 -6.162298 23.628619 -3.193691 0.000000 0.000000 0.000000 -7.179808 -0.121899 37.276219 -13.761792 -22.393112 -2.736743 -15.702414 -0.982860 13.216463 0.000000 0.000000 0.000000 7.125000 0.000000 0.000000 10.609112 43.434968 0.414764
21.659197 15.463867 -16.179463 -183.434030 171.751524 -161.095302 0.000000 0.000000 0.000000 -6.443589 -27.295711 -47.750272 1.419288 7.533091 21.305133 0.033640 -3.561055 -3.812277 1.579150 -7.926396 -22.491758 0.000000 0.000000 0.000000 32.072884 24.272754 -2.320116 -1.930887 -8.720019 24.923808 -0.866529 9.454632 -16.899207 -0.000190 0.074870 -0.205694 7.441005 2.541376 -13.853179 2.803752 2.271342 -4.590382 -0.872244 1.132362 3.065940 -1.410439 -1.049512 -17.698834 0.042364 -1.030923 27.818835 0.102254 -0.582225 12.106052 0.000000 0.000000 0.000000 9.447959 10.594480 -30.820332 17.794873 -27.893388 4.453029 17.290206 -45.670007 8.031299 0.000000 0.000000 0.000000 -7.125000 0.000000 0.000000 -6.926319 21.597782 -3.919786 0.000000 0.000000 0.000000 -7.113372 0.884934 37.623310 -13.916260 -22.614859 -2.795801 -15.268110 -1.221723 13.230546 0.000000 0.000000 0.000000 7.125000 0.000000 0.000000 10.999838 43.402685 0.439254
21.749241 15.452697 -15.849001 -184.015008 172.249691 -160.641795 0.000000 0.000000 0.000000 -5.760662 -27.545105 -48.448516 1.685392 8.176744 23.252626 -0.011283 -2.491509 -0.730608 1.312563 -7.256305 -20.477315 0.000000 0.000000 0.000000 32.619217 23.784435 -0.778286 -1.702409 -8.216050 23.372555 -0.710242 9.931284 -15.553108 -0.007883 0.561470 -1.542780 7.037499 2.315302 -14.720122 2.837742 1.955867 -4.846367 -0.642252 0.976333 3.228117 -1.243296 -0.823648 -17.529685 0.500152 -0.906331 27.923120 0.265448 -0.450328 12.112286 0.000000 0.000000 0.000000 9.653105 10.102782 -30.575190 17.013260 -26.875032 4.093512 16.771902 -45.379192 9.364556 0.000000 0.000000 0.000000 -7.125000 0.000000 0.000000 -7.278456 20.244593 -4.345006 0.000000 0.000000 0.000000 -7.108892 1.724653 37.738548 -13.929645 -22.634069 -2.800972 -14.594241 -1.295116 13.352945 0.000000 0.000000 0.000000 7.125000 0.000000 0.000000 11.630632 43.453948 0.450216
21.827394 15.444815 -15.512310 -184.340474 172.698085 -160.182644 0.000000 0.000000 0.000000 -5.345818 -27.610431 -49.024090 1.939540 8.738270 24.980548 0.003182 -1.590045 2.517372 1.166198 -6.854953 -19.286630 0.000000 0.000000 0.000000 32.908954 23.327792 0.467770 -1.557177 -7.875402 22.336234 -0.561298 10.348864 -14.206735 -0.045546 1.370930 -3.770132 6.124550 2.013083 -15.766771 2.866960 1.599148 -4.940013 -0.136329 0.808718 3.648636 -1.049630 -0.654415 -17.650919 0.884365 -0.845989 28.079555 0.386011 -0.353208 12.198970 0.000000 0.000000 0.000000 9.708000 9.317649 -30.077471 16.156983 -25.732577 3.714111 17.300881 -44.708327 9.187233 0.000000 0.000000 0.000000 -7.125000 0.000000 0.000000 -6.901997 20.397752 -4.093016 0.000000 0.000000 0.000000 -7.152128 2.233282 37.437291 -13.747136 -22.372026 -2.731192 -13.976111 -1.110191 13.434832 0.000000 0.000000 0.000000 7.125000 0.000000 0.000000 12.201435 43.469918 0.468157
21.891877 15.440889 -15.173190 -184.230220 173.210452 -159.833471 0.000000 0.000000 0.000000 -5.842762 -27.247672 -49.147455 2.192465 9.255445 26.598122 0.025807 -1.620979 4.076874 1.063935 -6.557654 -18.411303 0.000000 0.000000 0.000000 32.734701 22.769766 1.192567 -1.550203 -7.858547 22.285346 -0.408033 10.967439 -12.821171 -0.082249 1.849840 -5.090842 4.652849 1.656506 -16.644024 2.704792 1.303642 -4.998105 0.483700 0.667150 4.021056 -0.672072 -0.552624 -17.836032 1.216828 -0.927379 28.256281 0.434360 -0.305172 12.308265 0.000000 0.000000 0.000000 9.828496 8.395425 -29.405808 15.204959 -24.430389 3.310460 17.717853 -43.871268 9.380318 0.000000 0.000000 0.000000 -7.125000 0.000000 0.000000 -6.601901 20.172793 -3.946240 0.000000 0.000000 0.000000 -7.046523 2.807747 36.606610 -13.455557 -21.950993 -2.621146 -13.571813 -0.618506 13.320879 0.000000 0.000000 0.000000 7.125000 0.000000 0.000000 12.530714 43.313016 0.530634
21.945849 15.446148 -14.845731 -183.746860 173.642017 -159.739289 0.000000 0.000000 0.000000 -7.135222 -26.752558 -48.714741 2.448150 9.742636 28.147648 0.002130 -2.419528 3.593068 0.922583 -6.118552 -17.129003 0.000000 0.000000 0.000000 32.154018 21.840393 1.303878 -1.691571 -8.190954 23.296039 -0.184051 12.021827 -10.779665 -0.056010 1.523215 -4.189781 2.792632 1.166704 -16.925463 2.394872 0.968115 -5.082345 1.142630 0.498176 4.055048 -0.063734 -0.453253 -18.111598 1.445828 -1.060060 28.487877 0.396467 -0.266500 12.458451 0.000000 0.000000 0.000000 9.946977 7.506101 -28.518137 14.354507 -23.238879 2.966708 18.349649 -43.078454 9.346911 0.000000 0.000000 0.000000 -7.125000 0.000000 0.000000 -6.150038 20.169064 -3.673451 0.000000 0.000000 0.000000 -6.886272 3.500086 35.436522 -13.153245 -21.511345 -2.509245 -12.866074 -0.297291 13.227115 0.000000 0.000000 0.000000 7.125000 0.000000 0.000000 13.130704 43.145424 0.612305
